<?xml version="1.0" standalone="no"?>
<!DOCTYPE svg PUBLIC "-//W3C//DTD SVG 20010904//EN"
 "http://www.w3.org/TR/2001/REC-SVG-20010904/DTD/svg10.dtd">
<svg version="1.0" xmlns="http://www.w3.org/2000/svg"
 width="256.000000pt" height="256.000000pt" viewBox="0 0 256.000000 256.000000"
 preserveAspectRatio="xMidYMid meet">
<metadata>
Created by potrace 1.16, written by Peter Selinger 2001-2019
</metadata>
<g transform="translate(0.000000,256.000000) scale(0.100000,-0.100000)"
fill="#000000" stroke="none">
<path d="M115 1649 c99 -101 215 -174 360 -226 90 -32 90 -32 44 -32 -54 -1
-170 27 -257 62 -75 31 -72 22 13 -38 125 -89 267 -135 422 -135 98 -1 79 -16
-33 -28 -75 -8 -180 -3 -234 12 -58 16 49 -33 119 -54 60 -19 89 -22 162 -18
49 3 86 2 84 -2 -8 -14 -140 -40 -202 -41 l-58 -1 43 -14 c96 -30 208 -26 295
11 25 11 56 -64 57 -137 l0 -58 71 0 72 0 -7 53 c-3 28 -6 97 -7 152 -1 55 -3
92 -6 83 -6 -22 -51 -24 -59 -3 -4 8 -15 15 -26 15 -10 0 -38 20 -61 44 -23
24 -52 47 -64 51 -13 3 -24 13 -24 21 -1 8 -3 19 -4 24 -1 6 -3 15 -4 21 0 5
-5 8 -10 5 -5 -4 -12 7 -16 24 -4 16 -11 30 -16 30 -5 0 -9 7 -9 16 0 9 -8 23
-17 30 -16 12 -15 14 12 15 19 1 11 4 -25 10 -196 31 -263 44 -363 69 -62 16
-152 43 -201 60 -50 16 -92 30 -95 30 -3 0 17 -23 44 -51z"/>
<path d="M2429 1690 c-27 -16 -299 -90 -424 -115 -66 -13 -176 -31 -245 -38
-69 -8 -117 -15 -106 -16 14 -1 17 -6 12 -26 -4 -14 -15 -35 -26 -48 -11 -12
-19 -26 -19 -31 0 -5 -3 -12 -8 -15 -5 -3 -19 -22 -31 -41 -12 -19 -22 -28
-22 -20 0 8 -9 0 -20 -17 -11 -19 -28 -33 -39 -33 -25 0 -31 -40 -31 -212 l0
-138 65 0 65 0 0 43 c0 51 25 140 43 155 9 7 30 5 72 -10 66 -22 172 -21 250
4 l40 12 -80 7 c-83 7 -172 26 -180 39 -2 4 38 5 89 2 78 -4 106 -1 167 18 72
22 154 58 147 65 -1 2 -28 -3 -58 -11 -30 -9 -91 -16 -136 -16 -77 -1 -184 17
-184 30 0 4 44 7 98 8 56 0 124 8 162 17 82 22 191 75 252 124 49 40 63 62 27
42 -56 -30 -200 -70 -264 -75 l-70 -4 70 23 c120 40 217 96 323 185 76 64 115
124 61 92z"/>
<path d="M1397 1230 c-8 -11 -17 -17 -20 -14 -3 4 -23 -2 -44 -12 -21 -11 -49
-18 -63 -16 -14 2 -44 5 -66 6 -23 2 -47 7 -54 11 -17 10 -15 5 55 -129 33
-63 63 -112 66 -108 12 13 151 282 145 282 -2 0 -11 -9 -19 -20z"/>
</g>
</svg>
